<svg xmlns="http://www.w3.org/2000/svg" width="66" height="16" viewBox="0 0 66 16">
  <path fill-rule="evenodd" d="M65.5238095,5 L61.3333085,5 L55.7069797,11.0802966 L55.7069797,5 L52.5714286,5 L52.5714286,21 L55.7069797,21 L55.7069797,14.9646201 L61.3333085,21 L65.5238095,21 L58.0367221,13.0224583 L65.5238095,5 Z M47.2380952,14.5911026 C47.2380952,15.1389139 47.1192717,15.6718962 46.8820343,16.1896197 C46.3598253,17.2553694 45.4674196,17.7881368 44.204817,17.7881368 C42.9231616,17.7881368 42.0352629,17.2553694 41.5417355,16.1896197 C41.2758166,15.6718962 41.1428571,15.1389139 41.1428571,14.5911026 L41.1428571,5 L38.0952381,5 L38.0952381,14.5911026 C38.0952381,15.6568523 38.3562402,16.7223871 38.878654,17.7881368 C39.8943905,19.9295222 41.6697781,21 44.204817,21 C46.7205982,21 48.5006978,19.9295222 49.5453207,17.7881368 C50.0388481,16.7223871 50.2857143,15.6568523 50.2857143,14.5911026 L50.2857143,5 L47.2380952,5 L47.2380952,14.5911026 Z M24.3809524,8.18199036 L28.938245,8.18199036 L28.938245,21 L32.0143408,21 L32.0143408,8.18199036 L36.5714286,8.18199036 L36.5714286,5 L24.3809524,5 L24.3809524,8.18199036 Z M18.2857143,15.6666667 L20.1905816,11.8571429 L22.0952381,15.6666667 L18.2857143,15.6666667 Z M12.1904762,21 L15.9402646,21 L16.8514925,18.7591103 L23.5442889,18.7591103 L24.4406877,21 L28.1904762,21 L20.2129345,5 L12.1904762,21 Z M7.58371926,17.952381 L3.04761905,17.952381 L3.04761905,14.9047619 L7.62613368,14.9047619 C8.63714671,14.9047619 9.14285714,15.4197358 9.14285714,16.4496835 C9.14285714,17.423467 8.62307654,17.9242988 7.58371926,17.952381 L7.58371926,17.952381 Z M3.04761905,8.04761905 L6.10467156,8.04761905 C7.11432347,8.04761905 7.61904762,8.55335996 7.61904762,9.56422428 C7.61904762,10.5565633 7.11432347,11.0666268 6.10467156,11.0952381 L3.04761905,11.0952381 L3.04761905,8.04761905 Z M10.7635734,12.1559322 C11.1457841,11.468643 11.3371066,10.6769063 11.3371066,9.78050746 C11.3371066,8.17704737 10.7683511,6.94216175 9.63127434,6.07563567 C8.70528214,5.35847359 7.65854613,5 6.49128345,5 L0,5 L0,21 L8.10655783,21 C9.30422362,21 10.3507425,20.6415264 11.2465487,19.9243643 C12.3836254,19.0380663 12.952381,17.8029658 12.952381,16.2194925 C12.952381,14.3770501 12.2227061,13.0224583 10.7635734,12.1559322 L10.7635734,12.1559322 Z" transform="translate(0 -5)"/>
</svg>
